<?xml version="1.0" encoding="UTF-8"?>
<!DOCTYPE svg PUBLIC "-//W3C//DTD SVG 1.1//EN" "http://www.w3.org/Graphics/SVG/1.1/DTD/svg11.dtd">
<!-- Creator: CorelDRAW 2017 -->
<svg xmlns="http://www.w3.org/2000/svg" xml:space="preserve" width="297mm" height="210mm" version="1.1" style="shape-rendering:geometricPrecision; text-rendering:geometricPrecision; image-rendering:optimizeQuality; fill-rule:evenodd; clip-rule:evenodd"
viewBox="0 0 29700 21000"
 xmlns:xlink="http://www.w3.org/1999/xlink">
 <defs>
  <style type="text/css">
   <![CDATA[
    .fil0 {fill:black}
   ]]>
  </style>
 </defs>
 <g id="Capa_x0020_1">
  <metadata id="CorelCorpID_0Corel-Layer"/>
  <path class="fil0" d="M26218.6 10942.45c347.69,24.08 523.51,-449 273.96,-834.03 -143.83,-204.81 -720.48,-148.99 -1085.07,-146.42l-133.75 -3.83c-184.67,6.04 -440.94,513.64 -553.3,424.57 -764.76,-606.37 -991.01,-852.65 -1675.65,-114.46 -163.6,60.16 -791.76,-805.07 -1101.51,-872.01 -701.23,-151.52 -796.64,1010.89 -1313.34,1540.2 -261.18,-531.9 -567.08,-1835.46 -759,-2474.46 -290.57,-967.6 -370.75,-1900.35 -1104.22,-1692.8 -353.08,99.92 -327.26,679.83 -376.48,1068.23 -154.03,1215.51 -388.12,2517.11 -511.58,3710.45l-60.69 160.32c-201.69,-1645.53 -365.82,-3324.68 -535.16,-4990.29 -69.92,-687.75 -378.44,-4591.92 -611.03,-4862.93 -250.05,-291.3 -761.15,-223.04 -862.66,195.42 -73.65,664.25 -127.5,1189.29 -169.2,1622.87 -314.89,3274.25 -874.47,6644.09 -1023.74,9886.4 -47.98,-638.39 -245.15,-3045.28 -466.64,-5605.43 -174.96,-2022.15 -365.11,-4139.92 -508.89,-5557.51 -92.91,-916.13 -166.47,-1539.86 -204.07,-1656.21 -149.14,-461.53 -802.59,-445.77 -947.67,-23.75 -83.58,243.1 -120.59,1130.8 -146.89,1445.27 -106.57,1273.28 -701.63,9923.88 -924.72,10420.74 -148.25,-333.41 -367.4,-3021.85 -433.62,-3623.37 -54.98,-499.58 -318.23,-3331.65 -435.27,-3559.59 -85.85,-167.22 -363.7,-398.11 -669.81,-292.43 -262.48,90.64 -268.56,354.02 -319.34,670.83 -212.54,1325.59 -617.75,4019.14 -867.75,5087.34 -145.21,-352.5 -476.07,-1653.24 -625.21,-1832.47 -44.72,-160.73 -75.56,-211.32 -259.67,-265.2 -155.06,-45.36 -266.95,-42.93 -408.91,15.21 -187.34,76.77 -296.85,335.72 -420.96,520 -246.63,366.28 -504.04,758.59 -736.3,1129.22 -818.09,-351.57 -455.51,-729.17 -2002.52,-25.51 -271.95,123.7 -805.71,273.25 -852.78,584.51 -62.58,413.87 323.72,718.78 765.37,566.16 1167.85,-403.5 746.21,-761.38 1875.65,-9.25 736.46,490.42 961.66,-615.96 1431.92,-1100 188.16,271.33 792.43,2567.62 937.63,2816.94 136.65,234.62 583.64,419.85 826.63,156.2 258.62,-280.54 545.3,-3436.01 788.26,-4103.72 288.3,2691.89 595.52,5372.29 890.16,8055.69 27.23,248.14 43.37,759.13 163.98,959.42 139.74,232.05 503.68,348.64 768.29,115.74 310.59,-273.38 732.75,-7266.47 818.27,-8105.15l218.46 -2516.01c355.65,-436.56 665.4,9215.21 1145.46,12301.27 66.03,424.72 794.58,621.84 1112.08,368.03 275.16,-219.98 277.06,-958.48 404.95,-2135.99 367.77,-3386.18 580.34,-10460 864.85,-10322.27 154.48,-258.69 266,2317.76 370.75,3373 112.47,1132.94 250.91,2253.94 356.43,3392.97 37.49,404.77 61.03,1355.54 277.74,1598.31 169.06,189.41 523,192.93 713.53,21.86 162.1,-145.53 166.38,-467.59 201.36,-734.15 137.08,-1043.85 259.58,-2226.97 452.57,-3255.43l372.63 -2728.29c61.19,70.14 28.01,10.56 86.89,136.39 14.74,31.51 39.28,114.05 49.9,150.39l609.44 1998.46c69.79,357.33 151.95,714.98 513.02,773.24 552.84,89.22 689.34,-612.84 1127.86,-1305.16 148.24,-234.02 273.33,-558.3 431.32,-737.32 286.44,177.7 1034.26,1239.57 1486.11,597.76 160.95,-94.12 223.87,-239.53 386.63,-350.43 202.44,149.05 428.22,470.46 682.66,585.58 787.75,356.38 603.24,-597.37 883.01,-588.76l819.63 -24.36z"/>
 </g>
</svg>
